<svg width="20" height="21" viewBox="0 0 20 21" fill=none" xmlns="http://www.w3.org/2000/svg">
<g clip-path="url(#clip0_142_3507)">
<path d="M16.9089 3.70629C12.9854 -0.0830855 6.76525 -0.0830855 2.84181 3.70629C-1.04272 7.72824 -0.931312 14.1377 3.09065 18.0222C7.01409 21.8116 13.2343 21.8116 17.1577 18.0222C21.0422 14.0003 20.9308 7.59081 16.9089 3.70629ZM16.6819 17.5463L16.6785 17.543C12.9866 21.2315 7.00353 21.2288 3.31496 17.5369C-0.3736 13.845 -0.370871 7.86196 3.32105 4.17339C7.01298 0.48483 12.996 0.487559 16.6846 4.17944C18.4563 5.9528 19.4508 8.35746 19.4492 10.8642C19.4494 13.3705 18.4539 15.7741 16.6819 17.5463Z" fill="currentColor"/>
<path d="M15.6865 13.7463L13.7899 11.8564C13.3595 11.4249 12.6607 11.4241 12.2293 11.8546C12.2286 11.8552 12.228 11.8558 12.2274 11.8564L11.1407 12.9431C11.0585 13.0255 10.929 13.0369 10.8336 12.9701C10.2389 12.5544 9.68211 12.0869 9.16988 11.5729C8.71111 11.1152 8.28909 10.6221 7.90769 10.0981C7.83856 10.004 7.8486 9.8735 7.9313 9.79104L9.04498 8.67736C9.47495 8.24656 9.47495 7.549 9.04498 7.1182L7.14836 5.22158C6.71131 4.80375 6.02289 4.80375 5.58584 5.22158L4.98514 5.82228C4.07794 6.71927 3.75407 8.05119 4.14817 9.26457C4.44226 10.1523 4.85795 10.995 5.38335 11.7687C5.85635 12.4779 6.39899 13.1381 7.00325 13.7396C7.66019 14.4012 8.38789 14.9885 9.17324 15.4911C10.0366 16.0544 10.9845 16.476 11.9811 16.7397C12.2373 16.8029 12.5002 16.8346 12.764 16.8342C13.6685 16.8287 14.5339 16.4646 15.1702 15.8218L15.6866 15.3054C16.1165 14.8747 16.1165 14.1771 15.6865 13.7463ZM15.2086 14.8452C15.2082 14.8456 15.2078 14.8461 15.2073 14.8465L15.2107 14.8364L14.6943 15.3527C14.0309 16.0245 13.0647 16.301 12.1463 16.0817C11.2211 15.834 10.3415 15.4398 9.541 14.914C8.79725 14.4387 8.108 13.883 7.48575 13.257C6.9132 12.6886 6.39884 12.0646 5.9502 11.3941C5.45948 10.6727 5.07108 9.88675 4.79602 9.05872C4.4807 8.08599 4.74199 7.01862 5.47099 6.30152L6.07169 5.70082C6.2387 5.53306 6.51009 5.53247 6.67781 5.69948C6.67825 5.69991 6.67872 5.70035 6.67916 5.70082L8.57578 7.59745C8.74354 7.76446 8.74414 8.03584 8.57712 8.20357C8.57669 8.204 8.57625 8.20444 8.57578 8.20491L7.4621 9.3186C7.14254 9.63467 7.10236 10.1369 7.36761 10.4998C7.77042 11.0526 8.21617 11.5728 8.70067 12.0556C9.24087 12.5981 9.82812 13.0916 10.4556 13.5304C10.8181 13.7833 11.3096 13.7406 11.6232 13.4291L12.6998 12.3357C12.8668 12.1679 13.1382 12.1673 13.3059 12.3344C13.3063 12.3348 13.3068 12.3352 13.3072 12.3357L15.2073 14.2391C15.3751 14.4061 15.3757 14.6774 15.2086 14.8452Z" fill="currentColor"/>
</g>
<defs>
<clipPath id="clip0_142_3507">
<rect width="20" height="20" fill="currentColor" transform="translate(0 0.864258)"/>
</clipPath>
</defs>
</svg>
