<svg xmlns="http://www.w3.org/2000/svg" width="24" height="24" viewBox="0 0 24 24"><g transform="translate(-2 -2)"><path d="M4.585,13.2h6.032A2.585,2.585,0,0,0,13.2,10.617V4.585A2.585,2.585,0,0,0,10.617,2H4.585A2.585,2.585,0,0,0,2,4.585v6.032A2.585,2.585,0,0,0,4.585,13.2ZM3.723,4.585a.862.862,0,0,1,.862-.862h6.032a.862.862,0,0,1,.862.862v6.032a.862.862,0,0,1-.862.862H4.585a.862.862,0,0,1-.862-.862Z" fill="#1b1e25"></path><path d="M25.617,2H19.585A2.585,2.585,0,0,0,17,4.585v6.032A2.585,2.585,0,0,0,19.585,13.2h6.032A2.585,2.585,0,0,0,28.2,10.617V4.585A2.585,2.585,0,0,0,25.617,2Zm.862,8.617a.862.862,0,0,1-.862.862H19.585a.862.862,0,0,1-.862-.862V4.585a.862.862,0,0,1,.862-.862h6.032a.862.862,0,0,1,.862.862Z" transform="translate(-2.202)" fill="#1b1e25"></path><path d="M4.585,28.2h6.032A2.585,2.585,0,0,0,13.2,25.617V19.585A2.585,2.585,0,0,0,10.617,17H4.585A2.585,2.585,0,0,0,2,19.585v6.032A2.585,2.585,0,0,0,4.585,28.2Zm-.862-8.617a.862.862,0,0,1,.862-.862h6.032a.862.862,0,0,1,.862.862v6.032a.862.862,0,0,1-.862.862H4.585a.862.862,0,0,1-.862-.862Z" transform="translate(0 -2.202)" fill="#1b1e25"></path><path d="M25.617,17H19.585A2.585,2.585,0,0,0,17,19.585v6.032A2.585,2.585,0,0,0,19.585,28.2h6.032A2.585,2.585,0,0,0,28.2,25.617V19.585A2.585,2.585,0,0,0,25.617,17Zm.862,8.617a.862.862,0,0,1-.862.862H19.585a.862.862,0,0,1-.862-.862V19.585a.862.862,0,0,1,.862-.862h6.032a.862.862,0,0,1,.862.862Z" transform="translate(-2.202 -2.202)" fill="#1b1e25"></path></g></svg>