<svg xmlns="http://www.w3.org/2000/svg" width="60" height="60" viewBox="0 0 60 60"><g transform="translate(0 0)"><path d="M0,42.187a8.438,8.438,0,0,0,8.438,8.437H25.313v3.75H20.625a4.688,4.688,0,0,0-4.687,4.687.938.938,0,0,0,.937.937h26.25a.938.938,0,0,0,.938-.937,4.688,4.688,0,0,0-4.687-4.687H34.688v-3.75H51.563A8.438,8.438,0,0,0,60,42.187V16.875a8.438,8.438,0,0,0-8.437-8.437H48.75a.937.937,0,1,0,0,1.875h2.813a6.562,6.562,0,0,1,6.563,6.562V41.25H1.875V16.875a6.562,6.562,0,0,1,6.563-6.562h2.808a.937.937,0,1,0,0-1.875H8.438A8.438,8.438,0,0,0,0,16.875ZM42.027,58.125H17.973a2.813,2.813,0,0,1,2.652-1.875h18.75A2.814,2.814,0,0,1,42.027,58.125Zm-14.84-3.75v-3.75h5.625v3.75Zm30.871-11.25H1.942a6.564,6.564,0,0,0,6.5,5.625H51.563A6.564,6.564,0,0,0,58.058,43.125Zm-29.933,3.75h3.75a.937.937,0,1,0,0-1.875h-3.75a.937.937,0,1,0,0,1.875ZM23.438,34.687H20.625a.937.937,0,1,0,0,1.875h2.813a.937.937,0,1,0,0-1.875Zm26.25,1.875H52.5a.937.937,0,1,0,0-1.875H49.688a.937.937,0,1,0,0,1.875ZM16.875,34.687H7.5a.937.937,0,1,0,0,1.875h9.375a.937.937,0,1,0,0-1.875Zm19.688,1.875h9.375a.937.937,0,1,0,0-1.875H36.563a.937.937,0,1,0,0,1.875ZM30.475,35.5l2.106-1.238A25.533,25.533,0,0,0,44.993,9.265a.939.939,0,0,0-.448-.695L30.483.133a.938.938,0,0,0-.965,0L15.456,8.571a.938.938,0,0,0-.449.695A25.533,25.533,0,0,0,27.419,34.257L29.525,35.5a.938.938,0,0,0,.951,0Zm1.155-2.855L30,33.6l-1.63-.959a23.657,23.657,0,0,1-11.55-22.7L30,2.031,43.18,9.938A23.66,23.66,0,0,1,31.63,32.641Zm-22.255-1.7H7.5a.937.937,0,1,0,0,1.875H9.375a.937.937,0,1,0,0-1.875Zm32.813,0H40.313a.937.937,0,1,0,0,1.875h1.875a.937.937,0,1,0,0-1.875Zm-22.5,0H13.125a.937.937,0,1,0,0,1.875h6.563a.937.937,0,1,0,0-1.875Zm32.813,0H45.938a.937.937,0,1,0,0,1.875H52.5a.937.937,0,1,0,0-1.875ZM8.438,27.187H7.5a.937.937,0,1,0,0,1.875h.938a.937.937,0,1,0,0-1.875Zm35.625,0h-.937a.937.937,0,1,0,0,1.875h.938a.937.937,0,1,0,0-1.875Zm-27.187,0H12.188a.937.937,0,1,0,0,1.875h4.688a.937.937,0,1,0,0-1.875Zm35.625,0H47.813a.937.937,0,1,0,0,1.875H52.5a.937.937,0,1,0,0-1.875Zm-4.687-3.75H45a.937.937,0,1,0,0,1.875h2.812a.937.937,0,1,0,0-1.875ZM15,23.437h-.937a.937.937,0,1,0,0,1.875H15a.937.937,0,1,0,0-1.875Zm37.5,0h-.937a.937.937,0,1,0,0,1.875H52.5a.937.937,0,1,0,0-1.875ZM35.625,17.812a5.621,5.621,0,1,1-3.215-5.084.937.937,0,1,0,.8-1.693A7.5,7.5,0,1,0,37.5,17.812a.938.938,0,0,0-1.875,0ZM10.313,23.437H7.5a.937.937,0,1,0,0,1.875h2.813a.937.937,0,1,0,0-1.875Zm36.563-1.875h.938a.937.937,0,1,0,0-1.875h-.937a.937.937,0,1,0,0,1.875ZM8.438,19.687H7.5a.937.937,0,1,0,0,1.875h.938a.937.937,0,1,0,0-1.875Zm4.688,0h-.937a.937.937,0,1,0,0,1.875h.938a.937.937,0,1,0,0-1.875Zm38.438,1.875H52.5a.937.937,0,1,0,0-1.875h-.937a.937.937,0,1,0,0,1.875ZM35.9,12.462l-5.8,5.8-2.164-2.886a.937.937,0,0,0-1.5,1.125l2.813,3.75a.938.938,0,0,0,1.413.1l6.562-6.562A.937.937,0,1,0,35.9,12.462ZM12.188,15.937H7.5a.937.937,0,1,0,0,1.875h4.688a.937.937,0,1,0,0-1.875Zm35.625,1.875H52.5a.937.937,0,1,0,0-1.875H47.813a.937.937,0,1,0,0,1.875Z" fill="#fff" fill-rule="evenodd"></path></g></svg>