<svg xmlns="http://www.w3.org/2000/svg" xmlns:xlink="http://www.w3.org/1999/xlink" width="60" height="60" viewBox="0 0 60 60"><defs><clipPath id="a"><path d="M0-682.665H60v60H0Z" transform="translate(0 682.665)" fill="none"></path></clipPath></defs><g transform="translate(0 682.665)"><g transform="translate(0 -682.665)"><g clip-path="url(#a)"><g transform="translate(13.828 12.626)"><path d="M-360.749-429.336a22.508,22.508,0,0,1-28.172-2.961,22.5,22.5,0,0,1,0-31.82,22.5,22.5,0,0,1,31.82,0,22.508,22.508,0,0,1,2.977,28.147" transform="translate(395.511 470.706)" fill="none" stroke="#fff" stroke-linecap="round" stroke-linejoin="round" stroke-miterlimit="10" stroke-width="2.5"></path></g><g transform="translate(52.238 51.035)"><path d="M0,0H0" fill="none" stroke="#fff" stroke-linecap="round" stroke-linejoin="round" stroke-miterlimit="10" stroke-width="2.5"></path></g><g transform="translate(19.321 18.118)"><path d="M-176.5-353A17.007,17.007,0,0,1-193.5-370,17.007,17.007,0,0,1-176.5-387.01,17.007,17.007,0,0,1-159.49-370,17.007,17.007,0,0,1-176.5-353Z" transform="translate(193.505 387.01)" fill="none" stroke="#fff" stroke-linecap="round" stroke-linejoin="round" stroke-miterlimit="10" stroke-width="2.5"></path></g><g transform="translate(29.279 2.374)"><path d="M-29.187-58.375h8.438a2.812,2.812,0,0,0,2.812-2.812h0A2.812,2.812,0,0,0-20.75-64h-8.438A2.812,2.812,0,0,0-32-61.187h0A2.812,2.812,0,0,0-29.187-58.375Z" transform="translate(32 64)" fill="none" stroke="#fff" stroke-linecap="round" stroke-linejoin="round" stroke-miterlimit="10" stroke-width="2.5"></path></g><g transform="translate(32.302 7.999)"><path d="M-83.2-48.008v-4.626h-8.017v4.626" transform="translate(91.218 52.635)" fill="none" stroke="#fff" stroke-linecap="round" stroke-linejoin="round" stroke-miterlimit="10" stroke-width="2.5"></path></g><g transform="translate(38.549 26.884)"><path d="M0-62.477,6.02-68.5" transform="translate(0 68.497)" fill="none" stroke="#fff" stroke-linecap="round" stroke-linejoin="round" stroke-miterlimit="10" stroke-width="2.5"></path></g><g transform="translate(33.859 32.656)"><path d="M0-25.629a2.47,2.47,0,0,0,2.47,2.47,2.47,2.47,0,0,0,2.47-2.47A2.47,2.47,0,0,0,2.47-28.1,2.47,2.47,0,0,0,0-25.629Z" transform="translate(0 28.099)" fill="none" stroke="#fff" stroke-linecap="round" stroke-linejoin="round" stroke-miterlimit="10" stroke-width="2.5"></path></g><g transform="translate(47.772 35.14)"><path d="M-11.266,0h-1.086" transform="translate(12.352)" fill="none" stroke="#fff" stroke-linecap="round" stroke-linejoin="round" stroke-miterlimit="10" stroke-width="2.5"></path></g><g transform="translate(23.799 35.111)"><path d="M0,0H1.086" fill="none" stroke="#fff" stroke-linecap="round" stroke-linejoin="round" stroke-miterlimit="10" stroke-width="2.5"></path></g><g transform="translate(36.343 22.596)"><path d="M0,0V1.086" fill="none" stroke="#fff" stroke-linecap="round" stroke-linejoin="round" stroke-miterlimit="10" stroke-width="2.5"></path></g><g transform="translate(36.314 46.569)"><path d="M0-11.266v-1.086" transform="translate(0 12.352)" fill="none" stroke="#fff" stroke-linecap="round" stroke-linejoin="round" stroke-miterlimit="10" stroke-width="2.5"></path></g><g transform="translate(31.293 30.091)"><path d="M-33.017-33.017-36.2-36.2" transform="translate(36.199 36.199)" fill="none" stroke="#fff" stroke-linecap="round" stroke-linejoin="round" stroke-miterlimit="10" stroke-width="2.5"></path></g><g transform="translate(38.074 27.054)"><path d="M0-65.638l6.325-6.325" transform="translate(0 71.962)" fill="none" stroke="#fff" stroke-linecap="round" stroke-linejoin="round" stroke-miterlimit="10" stroke-width="2.5"></path></g><g transform="translate(5.859 42.356)"><path d="M-93.352,0h-9" transform="translate(102.348)" fill="none" stroke="#fff" stroke-linecap="round" stroke-linejoin="round" stroke-miterlimit="10" stroke-width="2.5"></path></g><g transform="translate(7.5 35.508)"><path d="M-65.673,0H-72" transform="translate(72.001)" fill="none" stroke="#fff" stroke-linecap="round" stroke-linejoin="round" stroke-miterlimit="10" stroke-width="2.5"></path></g><g transform="translate(1.172 28.66)"><path d="M-138.755,0h-13.37" transform="translate(152.125)" fill="none" stroke="#fff" stroke-linecap="round" stroke-linejoin="round" stroke-miterlimit="10" stroke-width="2.5"></path></g><g transform="translate(9.16 21.812)"><path d="M-86.664,0h-8.351" transform="translate(95.014)" fill="none" stroke="#fff" stroke-linecap="round" stroke-linejoin="round" stroke-miterlimit="10" stroke-width="2.5"></path></g><g transform="translate(1.172 42.356)"><path d="M0,0H0" fill="none" stroke="#fff" stroke-linecap="round" stroke-linejoin="round" stroke-miterlimit="10" stroke-width="2.5"></path></g></g></g></g></svg>