<svg xmlns="http://www.w3.org/2000/svg" width="60" height="60" viewBox="0 0 60 60"><g transform="translate(-0.004)"><g transform="translate(0.004)"><path d="M52.46,10.9a1.171,1.171,0,0,0,1.171-1.172V3.516A3.518,3.518,0,0,0,50.118,0H3.517A3.518,3.518,0,0,0,0,3.516V56.484A3.518,3.518,0,0,0,3.517,60h46.6a3.518,3.518,0,0,0,3.513-3.516V53.2a1.171,1.171,0,1,0-2.342,0v3.281a1.173,1.173,0,0,1-1.171,1.172H3.517a1.173,1.173,0,0,1-1.171-1.172V3.516A1.173,1.173,0,0,1,3.517,2.344h46.6a1.173,1.173,0,0,1,1.171,1.172V9.727A1.171,1.171,0,0,0,52.46,10.9Z" transform="translate(-0.004)" fill="#fff"></path></g><g transform="translate(5.669 5.666)"><path d="M89.547,48H49.178A1.18,1.18,0,0,0,48,49.18V73.849a1.18,1.18,0,1,0,2.361,0V50.361H88.366v1.889a1.18,1.18,0,0,0,2.361,0V49.18A1.18,1.18,0,0,0,89.547,48Z" transform="translate(-47.998 -48)" fill="#fff"></path></g><g transform="translate(5.668 34.443)"><path d="M50.009,294.346a1.18,1.18,0,1,0,.346.835A1.187,1.187,0,0,0,50.009,294.346Z" transform="translate(-47.994 -294)" fill="#fff"></path></g><g transform="translate(5.669 38.813)"><path d="M89.547,343.064a1.18,1.18,0,0,0-1.18,1.18v1.416H50.359V333.68a1.18,1.18,0,1,0-2.361,0v13.161a1.18,1.18,0,0,0,1.18,1.18H89.547a1.18,1.18,0,0,0,1.18-1.18v-2.6A1.18,1.18,0,0,0,89.547,343.064Z" transform="translate(-47.998 -332.5)" fill="#fff"></path></g><g transform="translate(26.292 41.036)"><path d="M234.723,350.752a1.18,1.18,0,0,0-1.669,0l-2.333,2.333-1.45-1.45a2.351,2.351,0,0,0-3.321,0l-.944.944a1.18,1.18,0,0,0,1.669,1.669l.935-.935,1.45,1.45a2.351,2.351,0,0,0,3.32,0l2.342-2.342A1.18,1.18,0,0,0,234.723,350.752Z" transform="translate(-224.661 -350.406)" fill="#fff"></path></g><g transform="translate(13.238 12.601)"><path d="M162,120.623a3.434,3.434,0,0,0-1.314-4.9,1.076,1.076,0,0,1-.579-1,3.434,3.434,0,0,0-3.59-3.59,1.073,1.073,0,0,1-1-.579,3.434,3.434,0,0,0-4.9-1.314,1.076,1.076,0,0,1-1.158,0,3.434,3.434,0,0,0-4.9,1.314,1.078,1.078,0,0,1-1,.579,3.434,3.434,0,0,0-3.59,3.589,1.076,1.076,0,0,1-.579,1,3.427,3.427,0,0,0-1.824,3.513h-20.6a1.18,1.18,0,1,0,0,2.361h21.2a1.065,1.065,0,0,1-.093.188,3.441,3.441,0,0,0-.426,2.742,3.389,3.389,0,0,0,.125.375H116.958a1.18,1.18,0,1,0,0,2.361h22.929a1.067,1.067,0,0,1,.07.43,3.434,3.434,0,0,0,3.59,3.59,1.075,1.075,0,0,1,1,.579,3.425,3.425,0,0,0,.525.749v11.023a1.18,1.18,0,0,0,2.013.837l2.945-2.929,2.945,2.929a1.18,1.18,0,0,0,2.013-.837V132.606a3.423,3.423,0,0,0,.525-.749,1.077,1.077,0,0,1,1-.579,3.434,3.434,0,0,0,3.59-3.59,1.076,1.076,0,0,1,.579-1,3.434,3.434,0,0,0,1.314-4.9A1.075,1.075,0,0,1,162,120.623ZM152.63,140.79l-1.764-1.755a1.18,1.18,0,0,0-1.665,0l-1.764,1.755v-7.081a3.443,3.443,0,0,0,2.018-.538,1.076,1.076,0,0,1,1.158,0,3.44,3.44,0,0,0,1.855.543c.054,0,.108,0,.162-.005Zm7.518-16.878a1.061,1.061,0,0,1-.544.676,3.443,3.443,0,0,0-1.853,3.21,1.073,1.073,0,0,1-1.122,1.122,3.443,3.443,0,0,0-3.21,1.853,1.073,1.073,0,0,1-1.532.411,3.443,3.443,0,0,0-3.707,0,1.073,1.073,0,0,1-1.533-.411,3.442,3.442,0,0,0-3.21-1.853,1.073,1.073,0,0,1-1.122-1.122,3.441,3.441,0,0,0-.934-2.513c-.018-.02-.037-.04-.057-.059a3.414,3.414,0,0,0-.862-.637,1.073,1.073,0,0,1-.411-1.532,3.443,3.443,0,0,0,0-3.706,1.073,1.073,0,0,1,.411-1.533,3.443,3.443,0,0,0,1.853-3.21,1.073,1.073,0,0,1,1.122-1.122,3.442,3.442,0,0,0,3.21-1.853,1.073,1.073,0,0,1,1.532-.411,3.442,3.442,0,0,0,3.706,0,1.073,1.073,0,0,1,1.533.411,3.443,3.443,0,0,0,3.21,1.853,1.073,1.073,0,0,1,1.122,1.122,3.443,3.443,0,0,0,1.853,3.21,1.073,1.073,0,0,1,.411,1.532,3.443,3.443,0,0,0,0,3.706A1.061,1.061,0,0,1,160.148,123.913Z" transform="translate(-115.778 -108.691)" fill="#fff"></path></g><g transform="translate(43.945 21.607)"><path d="M385.1,184.9a1.18,1.18,0,0,0-1.669,0l-3.918,3.918-1.56-1.56a1.18,1.18,0,0,0-1.669,1.669l2.394,2.394a1.18,1.18,0,0,0,1.669,0l4.752-4.752A1.18,1.18,0,0,0,385.1,184.9Z" transform="translate(-375.938 -184.557)" fill="#fff"></path></g><g transform="translate(12.305 13.824)"><path d="M107.019,118.346a1.18,1.18,0,1,0,.346.834A1.189,1.189,0,0,0,107.019,118.346Z" transform="translate(-105.004 -118)" fill="#fff"></path></g><g transform="translate(16.664 13.824)"><path d="M149.255,118H143.51a1.18,1.18,0,1,0,0,2.361h5.744a1.18,1.18,0,0,0,0-2.361Z" transform="translate(-142.33 -118)" fill="#fff"></path></g><g transform="translate(20.87 34.443)"><path d="M193.19,294H179.7a1.18,1.18,0,0,0,0,2.361H193.19a1.18,1.18,0,0,0,0-2.361Z" transform="translate(-178.516 -294)" fill="#fff"></path></g></g></svg>