<svg width="18" height="18" viewBox="0 0 18 18" fill="none" xmlns="http://www.w3.org/2000/svg">
<path d="M14.3014 13.0853L14.6024 15.5242C14.6796 16.1648 13.9927 16.6124 13.4447 16.2805L10.2109 14.3588C9.85589 14.3588 9.50859 14.3356 9.169 14.2893C9.74013 13.6179 10.0797 12.7689 10.0797 11.8504C10.0797 9.65855 8.1811 7.88346 5.83486 7.88346C4.93958 7.88346 4.11377 8.13813 3.42687 8.58577C3.40372 8.39282 3.396 8.19987 3.396 7.9992C3.396 4.48755 6.44457 1.63965 10.2109 1.63965C13.9773 1.63965 17.0258 4.48755 17.0258 7.9992C17.0258 10.083 15.953 11.9276 14.3014 13.0853Z" stroke="#525258" stroke-width="1.5" stroke-linecap="round" stroke-linejoin="round"/>
<path d="M10.0791 11.8508C10.0791 12.7692 9.73948 13.6182 9.16835 14.2896C8.40428 15.2158 7.19256 15.8101 5.83421 15.8101L3.81983 17.0063C3.48024 17.2147 3.04804 16.9292 3.09435 16.5355L3.28729 15.0151C2.25309 14.2974 1.58936 13.1474 1.58936 11.8508C1.58936 10.4924 2.31484 9.29615 3.42622 8.5861C4.11312 8.13846 4.93893 7.88379 5.83421 7.88379C8.18045 7.88379 10.0791 9.65887 10.0791 11.8508Z" stroke="#525258" stroke-width="1.5" stroke-linecap="round" stroke-linejoin="round"/>
</svg>
