<svg width="30" height="30" viewBox="0 0 30 30" fill="none" xmlns="http://www.w3.org/2000/svg">
<g clip-path="url(#clip0_390_271)">
<path d="M27.7215 10.0846C27.815 9.58354 27.8623 9.07493 27.863 8.56518C27.8573 3.83094 24.0148 -0.00228902 19.2806 0.00342435C15.6766 0.00775646 12.4603 2.26579 11.232 5.65394C9.03272 4.77848 6.54012 5.85159 5.6646 8.05086C5.58882 8.24122 5.52678 8.43673 5.47901 8.63594C1.96736 9.16113 -0.453601 12.4336 0.071589 15.9453C0.542596 19.0947 3.24822 21.4248 6.43264 21.4235H11.7902C12.382 21.4235 12.8617 20.9437 12.8617 20.3519C12.8617 19.7601 12.382 19.2804 11.7902 19.2804H6.43264C4.06548 19.2804 2.14655 17.3614 2.14655 14.9943C2.14655 12.6271 4.06548 10.7082 6.43264 10.7082C7.02444 10.7082 7.50417 10.2285 7.50417 9.63666C7.50612 8.45312 8.46716 7.49522 9.6507 7.49716C10.2104 7.4981 10.7476 7.71797 11.1473 8.10975C11.5688 8.52513 12.2472 8.52017 12.6626 8.0987C12.8185 7.94042 12.9214 7.73763 12.957 7.51826C13.5387 4.0191 16.8468 1.65402 20.3459 2.23566C23.8451 2.81729 26.2102 6.12539 25.6285 9.62454C25.5939 9.83317 25.5489 10.04 25.4938 10.2442C25.3706 10.6914 25.5492 11.1672 25.9364 11.4228C27.9088 12.7315 28.4468 15.3915 27.138 17.364C26.3458 18.5578 25.0096 19.2769 23.5769 19.2803H20.3623C19.7705 19.2803 19.2908 19.76 19.2908 20.3518C19.2908 20.9436 19.7705 21.4233 20.3623 21.4233H23.5769C27.1276 21.42 30.0033 18.5388 29.9999 14.9881C29.9981 13.0983 29.1649 11.3048 27.7215 10.0846Z" fill="#2DA9E9"/>
<path d="M22.1673 22.8089C21.7521 22.4079 21.0938 22.4079 20.6786 22.8089L17.1479 26.3374V10.7083C17.1479 10.1165 16.6682 9.63672 16.0764 9.63672C15.4846 9.63672 15.0048 10.1165 15.0048 10.7083V26.3374L11.4763 22.8088C11.0506 22.3977 10.3723 22.4095 9.9612 22.8352C9.56013 23.2504 9.56013 23.9087 9.9612 24.324L15.3188 29.6815C15.7367 30.1005 16.4152 30.1014 16.8341 29.6834C16.8348 29.6828 16.8354 29.6822 16.8361 29.6815L22.1936 24.324C22.6048 23.8983 22.593 23.22 22.1673 22.8089Z" fill="#2DA9E9"/>
</g>
<defs>
<clipPath id="clip0_390_271">
<rect width="30" height="30" fill="currentColor"/>
</clipPath>
</defs>
</svg>
