<svg width="28" height="28" viewBox="0 0 28 28" fill="none" xmlns="http://www.w3.org/2000/svg">
<g clip-path="url(#clip0_390_281)">
<path d="M14 11.3203C16.6235 11.3203 18.7578 9.18597 18.7578 6.5625C18.7578 3.93903 16.6235 1.80469 14 1.80469C11.3765 1.80469 9.24219 3.93903 9.24219 6.5625C9.24219 9.18597 11.3765 11.3203 14 11.3203ZM14 3.44531C15.7188 3.44531 17.1172 4.84367 17.1172 6.5625C17.1172 8.28133 15.7188 9.67969 14 9.67969C12.2812 9.67969 10.8828 8.28133 10.8828 6.5625C10.8828 4.84367 12.2812 3.44531 14 3.44531Z" fill="#2DA9E9"/>
<path d="M23.625 11.3203C25.2835 11.3203 26.6328 9.97101 26.6328 8.3125C26.6328 6.65399 25.2835 5.30469 23.625 5.30469C21.9665 5.30469 20.6172 6.65399 20.6172 8.3125C20.6172 9.97101 21.9665 11.3203 23.625 11.3203ZM23.625 6.94531C24.3789 6.94531 24.9922 7.55863 24.9922 8.3125C24.9922 9.06637 24.3789 9.67969 23.625 9.67969C22.8711 9.67969 22.2578 9.06637 22.2578 8.3125C22.2578 7.55863 22.8711 6.94531 23.625 6.94531Z" fill="#2DA9E9"/>
<path d="M24.2867 13.1797H23.018C21.5229 13.1797 20.2322 14.063 19.6441 15.3317C18.4333 14.01 16.6941 13.1797 14.7645 13.1797H13.2356C11.306 13.1797 9.56676 14.01 8.35592 15.3317C7.76776 14.063 6.47713 13.1797 4.98203 13.1797H3.71328C1.66578 13.1797 0 14.8354 0 16.8705V22.843C0 23.7265 0.721547 24.4453 1.60847 24.4453H6.62479C6.7089 25.4242 7.53205 26.1953 8.53245 26.1953H19.4676C20.4679 26.1953 21.2911 25.4242 21.3753 24.4453H26.3343C27.2528 24.4453 28.0001 23.701 28.0001 22.7861V16.8705C28 14.8354 26.3342 13.1797 24.2867 13.1797ZM1.64062 16.8705C1.64062 15.74 2.57042 14.8203 3.71328 14.8203H4.98203C6.12489 14.8203 7.05469 15.74 7.05469 16.8705V17.4322C6.50305 18.8686 6.61719 19.7293 6.61719 22.8047H1.64062V16.8705ZM19.7422 24.2801C19.7422 24.4315 19.619 24.5547 19.4676 24.5547H8.5324C8.38097 24.5547 8.25781 24.4315 8.25781 24.2801V19.7981C8.25781 17.0533 10.4908 14.8203 13.2355 14.8203H14.7644C17.5092 14.8203 19.7422 17.0533 19.7422 19.798V24.2801ZM26.3594 22.7861C26.3594 22.8144 26.6652 22.8047 21.3828 22.8047C21.3828 19.7066 21.4961 18.8662 20.9453 17.4322V16.8705C20.9453 15.74 21.8751 14.8203 23.018 14.8203H24.2867C25.4296 14.8203 26.3594 15.74 26.3594 16.8705V22.7861Z" fill="#2DA9E9"/>
<path d="M4.375 11.3203C6.03351 11.3203 7.38281 9.97101 7.38281 8.3125C7.38281 6.65399 6.03351 5.30469 4.375 5.30469C2.71649 5.30469 1.36719 6.65399 1.36719 8.3125C1.36719 9.97101 2.71649 11.3203 4.375 11.3203ZM4.375 6.94531C5.12887 6.94531 5.74219 7.55863 5.74219 8.3125C5.74219 9.06637 5.12887 9.67969 4.375 9.67969C3.62113 9.67969 3.00781 9.06637 3.00781 8.3125C3.00781 7.55863 3.62113 6.94531 4.375 6.94531Z" fill="#2DA9E9"/>
</g>
<defs>
<clipPath id="clip0_390_281">
<rect width="28" height="28" fill="currentColor"/>
</clipPath>
</defs>
</svg>
