<svg width="28" height="28" viewBox="0 0 28 28" fill="none" xmlns="http://www.w3.org/2000/svg">
<path d="M7.96125 0C7.0499 0 6.18796 0.41427 5.61864 1.12592L2.65739 4.82748C2.23184 5.35942 2 6.02035 2 6.70156V23C2 24.6569 3.34315 26 5 26H14.7546C14.2724 25.3984 13.8753 24.7257 13.5815 24H5C4.44772 24 4 23.5523 4 23V6.70156C4 6.47449 4.07728 6.25418 4.21913 6.07687L7.18038 2.37531C7.37015 2.13809 7.65747 2 7.96125 2H19C19.5523 2 20 2.44772 20 3V13.0619C20.3276 13.021 20.6613 13 21 13C21.3387 13 21.6724 13.021 22 13.0619V3C22 1.34315 20.6569 0 19 0H7.96125Z" fill="#2DA9E9"/>
<path d="M15 16C14.4492 16.6016 13.9956 17.2743 13.66 18H6.14226C5.51141 18 5 17.5523 5 17C5 16.4477 5.51141 16 6.14226 16H15Z" fill="#2DA9E9"/>
<path d="M6.08333 10C5.48503 10 5 10.4477 5 11C5 11.5523 5.48503 12 6.08333 12H16.9167C17.515 12 18 11.5523 18 11C18 10.4477 17.515 10 16.9167 10H6.08333Z" fill="#2DA9E9"/>
<path d="M22.5527 22.8942C23.0466 23.1412 23.6472 22.941 23.8942 22.447C24.1412 21.953 23.941 21.3525 23.447 21.1055L21.9999 20.3819V18C21.9999 17.4477 21.5522 17 20.9999 17C20.4477 17 20 17.4477 20 18V20.9999C20 21.3787 20.214 21.7248 20.5528 21.8942L22.5527 22.8942Z" fill="#2DA9E9"/>
<path fill-rule="evenodd" clip-rule="evenodd" d="M14 21C14 17.134 17.134 14 21 14C24.866 14 28 17.134 28 21C28 24.866 24.866 28 21 28C17.134 28 14 24.866 14 21ZM21 16C18.2386 16 16 18.2386 16 21C16 23.7614 18.2386 26 21 26C23.7614 26 26 23.7614 26 21C26 18.2386 23.7614 16 21 16Z" fill="#2DA9E9"/>
</svg>
