<svg width="42" height="34" viewBox="0 0 42 34" fill="none" xmlns="http://www.w3.org/2000/svg">
<path d="M13.6933 12.675L14.0042 12.2086L15.8105 9.49866C16.2929 8.77483 16.0973 7.79658 15.3739 7.31461L15.3738 7.31453C14.6483 6.83062 13.6711 7.02701 13.1901 7.75093L13.1898 7.7513L9.43981 13.3763L9.43973 13.3764C9.11768 13.859 9.08758 14.4804 9.36127 14.9927L13.6933 12.675ZM13.6933 12.675H14.2538M13.6933 12.675H14.2538M14.2538 12.675H33.25C34.1205 12.675 34.825 13.3802 34.825 14.25C34.825 15.1197 34.1205 15.825 33.25 15.825H10.75M14.2538 12.675L10.75 15.825M10.75 15.825C10.1696 15.825 9.63592 15.5052 9.3614 14.993L10.75 15.825Z" fill="#2DA9E9" stroke="#0F1760" stroke-width="0.6"/>
<path d="M30.3078 23.325L29.9967 23.7915L28.1894 26.5014L28.1894 26.5014C27.7064 27.2252 27.9018 28.2033 28.626 28.6853C28.8959 28.8649 29.1985 28.95 29.4981 28.95C30.0083 28.95 30.5076 28.7034 30.8103 28.2488L30.8104 28.2487L34.5603 22.6238L30.3078 23.325ZM30.3078 23.325H29.7471M30.3078 23.325H29.7471M29.7471 23.325H10.75M29.7471 23.325H10.75M10.75 23.325C9.88031 23.325 9.175 22.6197 9.175 21.75C9.175 20.8803 9.88031 20.175 10.75 20.175H33.25C33.8314 20.175 34.3651 20.4949 34.6388 21.007C34.9124 21.519 34.8819 22.1406 34.5604 22.6237L10.75 23.325Z" fill="#2DA9E9" stroke="#0F1760" stroke-width="0.6"/>
</svg>
